<mxfile host="Electron" modified="2023-06-29T14:49:18.856Z" agent="Mozilla/5.0 (Windows NT 10.0; Win64; x64) AppleWebKit/537.36 (KHTML, like Gecko) draw.io/21.5.0 Chrome/112.0.5615.204 Electron/24.5.1 Safari/537.36" etag="UCYSzmWivxTKB6Stn1m4" version="21.5.0" type="device">
  <diagram name="Page-1" id="ra7_IJWrL-wG-8pgiDa0">
    <mxGraphModel dx="794" dy="511" grid="1" gridSize="10" guides="1" tooltips="1" connect="1" arrows="1" fold="1" page="1" pageScale="1" pageWidth="1169" pageHeight="1654" math="0" shadow="0">
      <root>
        <mxCell id="0" />
        <mxCell id="1" parent="0" />
        <mxCell id="8naxXSxRR7sr7sNtpLdK-1" value="System" style="swimlane;whiteSpace=wrap;html=1;" vertex="1" parent="1">
          <mxGeometry x="150" y="80" width="390" height="430" as="geometry" />
        </mxCell>
        <mxCell id="8naxXSxRR7sr7sNtpLdK-4" value="Launches Program" style="ellipse;whiteSpace=wrap;html=1;" vertex="1" parent="8naxXSxRR7sr7sNtpLdK-1">
          <mxGeometry x="135" y="30" width="120" height="30" as="geometry" />
        </mxCell>
        <mxCell id="8naxXSxRR7sr7sNtpLdK-7" value="Main Menu" style="ellipse;whiteSpace=wrap;html=1;" vertex="1" parent="8naxXSxRR7sr7sNtpLdK-1">
          <mxGeometry x="135" y="380" width="120" height="40" as="geometry" />
        </mxCell>
        <mxCell id="8naxXSxRR7sr7sNtpLdK-6" value="Enters Valid Information For All Fields" style="ellipse;whiteSpace=wrap;html=1;" vertex="1" parent="8naxXSxRR7sr7sNtpLdK-1">
          <mxGeometry x="120" y="180" width="160" height="40" as="geometry" />
        </mxCell>
        <mxCell id="8naxXSxRR7sr7sNtpLdK-5" value="Login Screen" style="ellipse;whiteSpace=wrap;html=1;" vertex="1" parent="8naxXSxRR7sr7sNtpLdK-1">
          <mxGeometry x="135" y="80" width="120" height="30" as="geometry" />
        </mxCell>
        <mxCell id="8naxXSxRR7sr7sNtpLdK-9" value="Information Correct,&lt;br&gt;Authorizes User" style="ellipse;whiteSpace=wrap;html=1;" vertex="1" parent="8naxXSxRR7sr7sNtpLdK-1">
          <mxGeometry x="135" y="320" width="120" height="40" as="geometry" />
        </mxCell>
        <mxCell id="8naxXSxRR7sr7sNtpLdK-8" value="System Authenticates Information" style="ellipse;whiteSpace=wrap;html=1;" vertex="1" parent="8naxXSxRR7sr7sNtpLdK-1">
          <mxGeometry x="135" y="250" width="120" height="40" as="geometry" />
        </mxCell>
        <mxCell id="8naxXSxRR7sr7sNtpLdK-10" value="" style="endArrow=classic;html=1;rounded=0;exitX=0.5;exitY=1;exitDx=0;exitDy=0;entryX=0.5;entryY=0;entryDx=0;entryDy=0;" edge="1" parent="8naxXSxRR7sr7sNtpLdK-1" source="8naxXSxRR7sr7sNtpLdK-4" target="8naxXSxRR7sr7sNtpLdK-5">
          <mxGeometry width="50" height="50" relative="1" as="geometry">
            <mxPoint x="230" y="250" as="sourcePoint" />
            <mxPoint x="280" y="200" as="targetPoint" />
          </mxGeometry>
        </mxCell>
        <mxCell id="8naxXSxRR7sr7sNtpLdK-12" value="" style="endArrow=classic;html=1;rounded=0;" edge="1" parent="8naxXSxRR7sr7sNtpLdK-1" source="8naxXSxRR7sr7sNtpLdK-21" target="8naxXSxRR7sr7sNtpLdK-6">
          <mxGeometry width="50" height="50" relative="1" as="geometry">
            <mxPoint x="200" y="170" as="sourcePoint" />
            <mxPoint x="240" y="120" as="targetPoint" />
          </mxGeometry>
        </mxCell>
        <mxCell id="8naxXSxRR7sr7sNtpLdK-21" value="Register Screen" style="ellipse;whiteSpace=wrap;html=1;" vertex="1" parent="8naxXSxRR7sr7sNtpLdK-1">
          <mxGeometry x="135" y="130" width="120" height="30" as="geometry" />
        </mxCell>
        <mxCell id="8naxXSxRR7sr7sNtpLdK-27" value="" style="endArrow=classic;html=1;rounded=0;entryX=0.5;entryY=0;entryDx=0;entryDy=0;" edge="1" parent="8naxXSxRR7sr7sNtpLdK-1" target="8naxXSxRR7sr7sNtpLdK-21">
          <mxGeometry width="50" height="50" relative="1" as="geometry">
            <mxPoint x="200" y="110" as="sourcePoint" />
            <mxPoint x="250" y="60" as="targetPoint" />
          </mxGeometry>
        </mxCell>
        <mxCell id="8naxXSxRR7sr7sNtpLdK-28" value="" style="endArrow=classic;html=1;rounded=0;" edge="1" parent="8naxXSxRR7sr7sNtpLdK-1" target="8naxXSxRR7sr7sNtpLdK-8">
          <mxGeometry width="50" height="50" relative="1" as="geometry">
            <mxPoint x="200" y="220" as="sourcePoint" />
            <mxPoint x="250" y="170" as="targetPoint" />
          </mxGeometry>
        </mxCell>
        <mxCell id="8naxXSxRR7sr7sNtpLdK-29" value="" style="endArrow=classic;html=1;rounded=0;" edge="1" parent="8naxXSxRR7sr7sNtpLdK-1" target="8naxXSxRR7sr7sNtpLdK-9">
          <mxGeometry width="50" height="50" relative="1" as="geometry">
            <mxPoint x="200" y="290" as="sourcePoint" />
            <mxPoint x="250" y="240" as="targetPoint" />
          </mxGeometry>
        </mxCell>
        <mxCell id="8naxXSxRR7sr7sNtpLdK-30" value="" style="endArrow=classic;html=1;rounded=0;entryX=0.5;entryY=0;entryDx=0;entryDy=0;" edge="1" parent="8naxXSxRR7sr7sNtpLdK-1" target="8naxXSxRR7sr7sNtpLdK-7">
          <mxGeometry width="50" height="50" relative="1" as="geometry">
            <mxPoint x="200" y="360" as="sourcePoint" />
            <mxPoint x="250" y="310" as="targetPoint" />
          </mxGeometry>
        </mxCell>
        <mxCell id="8naxXSxRR7sr7sNtpLdK-2" value="User" style="shape=umlActor;verticalLabelPosition=bottom;verticalAlign=top;html=1;outlineConnect=0;" vertex="1" parent="1">
          <mxGeometry x="40" y="220" width="30" height="60" as="geometry" />
        </mxCell>
        <mxCell id="8naxXSxRR7sr7sNtpLdK-3" value="Database" style="shape=umlActor;verticalLabelPosition=bottom;verticalAlign=top;html=1;outlineConnect=0;" vertex="1" parent="1">
          <mxGeometry x="600" y="220" width="30" height="60" as="geometry" />
        </mxCell>
        <mxCell id="8naxXSxRR7sr7sNtpLdK-16" value="" style="endArrow=none;html=1;rounded=0;entryX=0;entryY=0.5;entryDx=0;entryDy=0;exitX=0.5;exitY=0.5;exitDx=0;exitDy=0;exitPerimeter=0;" edge="1" parent="1" source="8naxXSxRR7sr7sNtpLdK-2" target="8naxXSxRR7sr7sNtpLdK-4">
          <mxGeometry width="50" height="50" relative="1" as="geometry">
            <mxPoint x="90" y="200" as="sourcePoint" />
            <mxPoint x="140" y="150" as="targetPoint" />
          </mxGeometry>
        </mxCell>
        <mxCell id="8naxXSxRR7sr7sNtpLdK-17" value="" style="endArrow=none;html=1;rounded=0;entryX=0;entryY=0.5;entryDx=0;entryDy=0;exitX=0.5;exitY=0.5;exitDx=0;exitDy=0;exitPerimeter=0;" edge="1" parent="1" source="8naxXSxRR7sr7sNtpLdK-2" target="8naxXSxRR7sr7sNtpLdK-6">
          <mxGeometry width="50" height="50" relative="1" as="geometry">
            <mxPoint x="90" y="200" as="sourcePoint" />
            <mxPoint x="140" y="150" as="targetPoint" />
          </mxGeometry>
        </mxCell>
        <mxCell id="8naxXSxRR7sr7sNtpLdK-19" value="" style="endArrow=none;html=1;rounded=0;exitX=0.5;exitY=0.5;exitDx=0;exitDy=0;exitPerimeter=0;entryX=0;entryY=0.5;entryDx=0;entryDy=0;" edge="1" parent="1" source="8naxXSxRR7sr7sNtpLdK-2" target="8naxXSxRR7sr7sNtpLdK-7">
          <mxGeometry width="50" height="50" relative="1" as="geometry">
            <mxPoint x="130" y="340" as="sourcePoint" />
            <mxPoint x="180" y="290" as="targetPoint" />
          </mxGeometry>
        </mxCell>
        <mxCell id="8naxXSxRR7sr7sNtpLdK-20" value="" style="endArrow=none;html=1;rounded=0;exitX=1;exitY=0.5;exitDx=0;exitDy=0;entryX=0.5;entryY=0.5;entryDx=0;entryDy=0;entryPerimeter=0;" edge="1" parent="1" source="8naxXSxRR7sr7sNtpLdK-8" target="8naxXSxRR7sr7sNtpLdK-3">
          <mxGeometry width="50" height="50" relative="1" as="geometry">
            <mxPoint x="560" y="300" as="sourcePoint" />
            <mxPoint x="610" y="250" as="targetPoint" />
          </mxGeometry>
        </mxCell>
      </root>
    </mxGraphModel>
  </diagram>
</mxfile>
